<svg xmlns="http://www.w3.org/2000/svg" viewBox="0 0 680 320">
  <defs>
    <linearGradient id="stemHealthy" x1="0" x2="1" y1="0" y2="0">
      <stop offset="0" stop-color="#6E8C50"/>
      <stop offset="0.5" stop-color="#B7C878"/>
      <stop offset="1" stop-color="#5F7F46"/>
    </linearGradient>
    <linearGradient id="bleachedLesion" x1="0" x2="1" y1="0" y2="0">
      <stop offset="0" stop-color="#EDE6D1"/>
      <stop offset="0.55" stop-color="#F7F3E6"/>
      <stop offset="1" stop-color="#CDBF9E"/>
    </linearGradient>
    <pattern id="sclerotia" width="14" height="18" patternUnits="userSpaceOnUse">
      <circle cx="4" cy="5" r="1.1" fill="#25231E" opacity="0.85"/>
      <circle cx="11" cy="14" r="0.8" fill="#25231E" opacity="0.7"/>
    </pattern>
  </defs>
  <rect width="680" height="320" fill="#F6F2EA"/>
  <text x="340" y="28" text-anchor="middle" font-family="sans-serif" font-size="15" font-weight="700" fill="#2D5A40">Canola - Sclerotinia Severity Score</text>
  <g fill="#FCFBF7" stroke="#D7D1C6" stroke-width="0.8">
    <rect x="12" y="48" width="102" height="218" rx="5"/>
    <rect x="123" y="48" width="102" height="218" rx="5"/>
    <rect x="234" y="48" width="102" height="218" rx="5"/>
    <rect x="345" y="48" width="102" height="218" rx="5"/>
    <rect x="456" y="48" width="102" height="218" rx="5"/>
    <rect x="567" y="48" width="101" height="218" rx="5"/>
  </g>

  <g transform="translate(63 180)">
    <path d="M-3,48 C-4,12 -3,-45 1,-92 C4,-45 5,12 3,48 Z" fill="url(#stemHealthy)" stroke="#2D5A40" stroke-width="1"/>
    <path d="M0,-58 C-27,-72 -40,-48 -19,-37 C-7,-32 0,-42 0,-58 Z" fill="#A8BD70" stroke="#2D5A40" stroke-width="0.8"/>
    <path d="M2,-40 C32,-56 45,-30 20,-20 C8,-17 2,-27 2,-40 Z" fill="#9FB769" stroke="#2D5A40" stroke-width="0.8"/>
    <path d="M1,-78 C19,-100 38,-83 22,-66 C11,-57 2,-64 1,-78 Z" fill="#B6C982" stroke="#2D5A40" stroke-width="0.8"/>
    <path d="M-1,-16 C-28,-30 -36,-5 -14,6 C-5,11 -1,0 -1,-16 Z" fill="#8EA85F" stroke="#2D5A40" stroke-width="0.8"/>
  </g>

  <g transform="translate(174 180)">
    <path d="M-3,48 C-4,12 -3,-45 1,-92 C4,-45 5,12 3,48 Z" fill="url(#stemHealthy)" stroke="#2D5A40" stroke-width="1"/>
    <path d="M-4,-5 C-9,-20 -7,-37 2,-42 C7,-30 7,-12 2,2 C-1,5 -3,2 -4,-5 Z" fill="url(#bleachedLesion)" stroke="#A9966B" stroke-width="0.7"/>
    <path d="M0,-58 C-25,-72 -38,-47 -19,-38 C-8,-33 0,-43 0,-58 Z" fill="#A8BD70" stroke="#2D5A40" stroke-width="0.8"/>
    <path d="M2,-40 C31,-55 42,-29 20,-20 C9,-17 2,-28 2,-40 Z" fill="#9FB769" stroke="#2D5A40" stroke-width="0.8"/>
    <path d="M1,-78 C18,-99 35,-82 21,-66 C10,-58 2,-65 1,-78 Z" fill="#B6C982" stroke="#2D5A40" stroke-width="0.8"/>
    <path d="M-1,-16 C-26,-29 -34,-6 -14,5 C-5,10 -1,0 -1,-16 Z" fill="#8EA85F" stroke="#2D5A40" stroke-width="0.8"/>
  </g>

  <g transform="translate(285 181) rotate(4)">
    <path d="M-3,48 C-4,12 -3,-45 1,-92 C4,-45 5,12 3,48 Z" fill="url(#stemHealthy)" stroke="#2D5A40" stroke-width="1"/>
    <path d="M-5,-12 C-11,-34 -6,-57 4,-62 C11,-39 9,-14 2,4 C-1,8 -4,3 -5,-12 Z" fill="url(#bleachedLesion)" stroke="#A9966B" stroke-width="0.7"/>
    <path d="M0,-58 C-23,-69 -36,-46 -19,-37 C-8,-32 0,-43 0,-58 Z" fill="#B9C879" stroke="#526E3D" stroke-width="0.8"/>
    <path d="M2,-40 C27,-49 39,-25 18,-16 C8,-13 2,-27 2,-40 Z" fill="#D3CC80" stroke="#7C7A3B" stroke-width="0.8"/>
    <path d="M1,-78 C17,-94 32,-79 19,-63 C9,-56 2,-65 1,-78 Z" fill="#B6C982" stroke="#526E3D" stroke-width="0.8"/>
    <path d="M-1,-16 C-24,-26 -31,-4 -13,6 C-5,9 -1,-1 -1,-16 Z" fill="#9FB769" stroke="#526E3D" stroke-width="0.8"/>
  </g>

  <g transform="translate(396 184) rotate(9)">
    <path d="M-3,48 C-4,12 -3,-45 1,-92 C4,-45 5,12 3,48 Z" fill="url(#stemHealthy)" stroke="#2D5A40" stroke-width="1"/>
    <path d="M-6,5 C-13,-31 -8,-70 5,-78 C14,-48 12,-9 2,16 C-2,21 -5,12 -6,5 Z" fill="url(#bleachedLesion)" stroke="#A9966B" stroke-width="0.7"/>
    <path d="M-2,-57 C-22,-67 -31,-43 -16,-32 C-6,-26 1,-40 -2,-57 Z" fill="#D7CF83" stroke="#8C8241" stroke-width="0.8"/>
    <path d="M2,-40 C24,-47 34,-20 14,-11 C5,-8 0,-25 2,-40 Z" fill="#D8B56A" stroke="#866735" stroke-width="0.8"/>
    <path d="M1,-78 C14,-90 28,-73 15,-57 C7,-51 1,-64 1,-78 Z" fill="#BFC775" stroke="#7C7A3B" stroke-width="0.8"/>
    <path d="M-1,-16 C-21,-22 -26,3 -10,11 C-3,13 -2,-1 -1,-16 Z" fill="#B9C879" stroke="#697747" stroke-width="0.8"/>
  </g>

  <g transform="translate(507 190) rotate(17)">
    <path d="M-3,48 C-4,12 -3,-45 1,-92 C4,-45 5,12 3,48 Z" fill="#9B7C46" stroke="#5D4629" stroke-width="1"/>
    <path d="M-7,12 C-15,-30 -8,-81 6,-92 C16,-55 13,-9 2,25 C-3,31 -6,22 -7,12 Z" fill="url(#bleachedLesion)" stroke="#967F58" stroke-width="0.8"/>
    <path d="M-6,-62 C-22,-66 -28,-45 -14,-34 C-5,-28 0,-42 -6,-62 Z" fill="#C8AD66" stroke="#7A5C32" stroke-width="0.8"/>
    <path d="M3,-42 C23,-42 29,-14 10,-6 C2,-3 0,-26 3,-42 Z" fill="#B8834A" stroke="#6A4426" stroke-width="0.8"/>
    <path d="M-1,-78 C10,-84 22,-67 11,-52 C4,-47 -1,-64 -1,-78 Z" fill="#B9AE60" stroke="#6B6138" stroke-width="0.8"/>
    <path d="M-4,-14 C-20,-17 -22,8 -8,16 C-1,17 -2,1 -4,-14 Z" fill="#C9B56B" stroke="#7A5C32" stroke-width="0.8"/>
    <path d="M-6,-6 C-14,-37 -8,-70 5,-86" fill="none" stroke="url(#sclerotia)" stroke-width="7" opacity="0.75"/>
  </g>

  <g transform="translate(618 215) rotate(67)">
    <path d="M-3,48 C-4,12 -3,-45 1,-92 C4,-45 5,12 3,48 Z" fill="#7B5C33" stroke="#4A3520" stroke-width="1"/>
    <path d="M-7,17 C-15,-28 -9,-82 6,-94 C15,-58 14,-7 2,27 C-2,34 -6,25 -7,17 Z" fill="url(#bleachedLesion)" stroke="#8A7654" stroke-width="0.8"/>
    <path d="M-9,-58 C-24,-58 -27,-38 -12,-28 C-4,-23 0,-42 -9,-58 Z" fill="#8D6438" stroke="#5E4126" stroke-width="0.8"/>
    <path d="M2,-40 C18,-35 21,-9 6,-2 C-1,0 -1,-24 2,-40 Z" fill="#7D5832" stroke="#4D3420" stroke-width="0.8"/>
    <path d="M-4,-10 C-18,-10 -18,12 -5,19 C1,19 -1,1 -4,-10 Z" fill="#9A713F" stroke="#5E4126" stroke-width="0.8"/>
    <path d="M-6,-3 C-12,-34 -8,-70 5,-88" fill="none" stroke="url(#sclerotia)" stroke-width="7" opacity="0.85"/>
  </g>

  <g font-family="sans-serif" text-anchor="middle" fill="#1F2933">
    <text x="63" y="286" font-size="13" font-weight="700">0</text>
    <text x="174" y="286" font-size="13" font-weight="700">1</text>
    <text x="285" y="286" font-size="13" font-weight="700">2</text>
    <text x="396" y="286" font-size="13" font-weight="700">3</text>
    <text x="507" y="286" font-size="13" font-weight="700">4</text>
    <text x="618" y="286" font-size="13" font-weight="700">5</text>
    <text x="63" y="300" font-size="9" fill="#6B7280">healthy</text>
    <text x="174" y="300" font-size="9" fill="#6B7280">surface lesion</text>
    <text x="285" y="300" font-size="9" fill="#6B7280">limited wilt</text>
    <text x="396" y="300" font-size="9" fill="#6B7280">moderate wilt</text>
    <text x="507" y="300" font-size="9" fill="#6B7280">girdling</text>
    <text x="618" y="300" font-size="9" fill="#6B7280">collapse</text>
  </g>
  <text x="340" y="316" text-anchor="middle" font-family="sans-serif" font-size="9" fill="#6B7280">Original Agnexis whole-plant stem guide, pending validation</text>
</svg>
