<svg xmlns="http://www.w3.org/2000/svg" viewBox="0 0 680 320">
  <defs>
    <pattern id="soilTexture" width="22" height="18" patternUnits="userSpaceOnUse">
      <rect width="22" height="18" fill="#D7C1A2"/>
      <circle cx="5" cy="6" r="0.8" fill="#A98B66" opacity="0.35"/>
      <circle cx="17" cy="11" r="0.7" fill="#8D7556" opacity="0.25"/>
    </pattern>
    <linearGradient id="weedCanopy" x1="0" x2="1" y1="0" y2="1">
      <stop offset="0" stop-color="#607E45"/>
      <stop offset="1" stop-color="#385B38"/>
    </linearGradient>
    <clipPath id="plotClip">
      <rect x="-32" y="-52" width="64" height="104" rx="3"/>
    </clipPath>
  </defs>
  <rect width="680" height="320" fill="#F6F2EA"/>
  <text x="340" y="28" text-anchor="middle" font-family="sans-serif" font-size="15" font-weight="700" fill="#2D5A40">Weed Cover %</text>
  <g fill="#FCFBF7" stroke="#D7D1C6" stroke-width="0.8">
    <rect x="10" y="46" width="88" height="220" rx="5"/>
    <rect x="106" y="46" width="88" height="220" rx="5"/>
    <rect x="202" y="46" width="88" height="220" rx="5"/>
    <rect x="298" y="46" width="88" height="220" rx="5"/>
    <rect x="394" y="46" width="88" height="220" rx="5"/>
    <rect x="490" y="46" width="88" height="220" rx="5"/>
    <rect x="586" y="46" width="84" height="220" rx="5"/>
  </g>

  <g transform="translate(54 150)">
    <rect x="-32" y="-52" width="64" height="104" rx="3" fill="url(#soilTexture)" stroke="#2D5A40" stroke-width="1.2"/>
  </g>

  <g transform="translate(150 150)">
    <rect x="-32" y="-52" width="64" height="104" rx="3" fill="url(#soilTexture)" stroke="#2D5A40" stroke-width="1.2"/>
    <g fill="url(#weedCanopy)" opacity="0.92">
      <path d="M-24,-36 C-17,-48 -5,-38 -11,-26 C-17,-20 -27,-25 -24,-36 Z"/>
      <path d="M6,11 C16,1 31,10 25,23 C16,29 4,24 6,11 Z"/>
      <path d="M-14,32 C-5,24 7,30 4,43 C-6,48 -18,43 -14,32 Z"/>
    </g>
  </g>

  <g transform="translate(246 150)">
    <rect x="-32" y="-52" width="64" height="104" rx="3" fill="url(#soilTexture)" stroke="#2D5A40" stroke-width="1.2"/>
    <g fill="url(#weedCanopy)" opacity="0.94">
      <path d="M-29,-45 C-15,-58 5,-47 -1,-30 C-12,-21 -30,-27 -29,-45 Z"/>
      <path d="M11,-38 C27,-48 39,-28 27,-14 C15,-11 6,-25 11,-38 Z"/>
      <path d="M-24,-2 C-10,-14 9,-4 5,13 C-6,23 -27,15 -24,-2 Z"/>
      <path d="M14,15 C29,4 40,24 28,38 C16,42 7,28 14,15 Z"/>
      <path d="M-13,34 C-1,25 16,33 11,49 C-2,55 -18,47 -13,34 Z"/>
    </g>
  </g>

  <g transform="translate(342 150)">
    <rect x="-32" y="-52" width="64" height="104" rx="3" fill="url(#soilTexture)" stroke="#2D5A40" stroke-width="1.2"/>
    <g clip-path="url(#plotClip)" fill="url(#weedCanopy)" opacity="0.95">
      <path d="M-35,-54 C-12,-65 10,-48 0,-26 C-16,-17 -37,-27 -35,-54 Z"/>
      <path d="M7,-51 C31,-61 48,-33 30,-13 C12,-8 0,-29 7,-51 Z"/>
      <path d="M-34,-18 C-13,-32 13,-17 8,8 C-8,22 -36,10 -34,-18 Z"/>
      <path d="M7,-3 C31,-17 48,10 31,31 C14,38 -2,19 7,-3 Z"/>
      <path d="M-30,24 C-8,11 17,28 8,52 C-12,62 -35,48 -30,24 Z"/>
    </g>
    <path d="M-8,-7 C2,-13 13,-8 10,5 C1,11 -11,5 -8,-7 Z" fill="url(#soilTexture)" opacity="0.95"/>
    <path d="M18,37 C25,31 33,36 29,47 C21,50 15,45 18,37 Z" fill="url(#soilTexture)" opacity="0.95"/>
  </g>

  <g transform="translate(438 150)">
    <rect x="-32" y="-52" width="64" height="104" rx="3" fill="url(#soilTexture)" stroke="#2D5A40" stroke-width="1.2"/>
    <g clip-path="url(#plotClip)" fill="url(#weedCanopy)" opacity="0.97">
      <path d="M-38,-57 C-8,-70 25,-54 12,-27 C-7,-15 -40,-25 -38,-57 Z"/>
      <path d="M4,-59 C35,-66 49,-35 28,-10 C10,-3 -7,-31 4,-59 Z"/>
      <path d="M-39,-23 C-10,-43 20,-23 11,10 C-11,27 -43,10 -39,-23 Z"/>
      <path d="M2,0 C34,-17 50,17 28,43 C8,51 -12,24 2,0 Z"/>
      <path d="M-37,20 C-10,5 21,26 9,55 C-15,66 -44,48 -37,20 Z"/>
    </g>
    <path d="M-22,-7 C-13,-14 -1,-8 -5,4 C-15,10 -26,4 -22,-7 Z" fill="url(#soilTexture)"/>
    <path d="M19,23 C28,18 35,26 29,36 C20,39 14,31 19,23 Z" fill="url(#soilTexture)"/>
  </g>

  <g transform="translate(534 150)">
    <rect x="-32" y="-52" width="64" height="104" rx="3" fill="url(#soilTexture)" stroke="#2D5A40" stroke-width="1.2"/>
    <g clip-path="url(#plotClip)" fill="url(#weedCanopy)" opacity="0.98">
      <path d="M-40,-58 C-5,-75 29,-57 15,-24 C-6,-9 -43,-22 -40,-58 Z"/>
      <path d="M5,-61 C38,-70 52,-30 28,-3 C8,4 -10,-29 5,-61 Z"/>
      <path d="M-41,-21 C-10,-44 25,-21 13,17 C-13,35 -46,12 -41,-21 Z"/>
      <path d="M0,1 C36,-18 54,18 27,48 C5,57 -15,24 0,1 Z"/>
      <path d="M-40,21 C-8,2 27,25 12,59 C-17,72 -48,49 -40,21 Z"/>
    </g>
    <path d="M-5,-1 C2,-8 11,-3 8,8 C0,12 -9,8 -5,-1 Z" fill="url(#soilTexture)"/>
  </g>

  <g transform="translate(628 150)">
    <rect x="-32" y="-52" width="64" height="104" rx="3" fill="url(#soilTexture)" stroke="#2D5A40" stroke-width="1.2"/>
    <g clip-path="url(#plotClip)" fill="url(#weedCanopy)">
      <path d="M-42,-60 C-6,-77 32,-58 15,-23 C-8,-7 -45,-22 -42,-60 Z"/>
      <path d="M4,-62 C40,-72 55,-29 29,-1 C7,8 -12,-29 4,-62 Z"/>
      <path d="M-42,-21 C-8,-47 28,-21 14,18 C-13,38 -49,14 -42,-21 Z"/>
      <path d="M-1,-1 C37,-21 56,17 28,50 C5,61 -17,23 -1,-1 Z"/>
      <path d="M-42,18 C-7,-3 31,25 13,61 C-19,75 -51,48 -42,18 Z"/>
    </g>
  </g>

  <g font-family="sans-serif" text-anchor="middle" font-size="13" font-weight="700" fill="#1F2933">
    <text x="54" y="286">0%</text>
    <text x="150" y="286">10%</text>
    <text x="246" y="286">25%</text>
    <text x="342" y="286">50%</text>
    <text x="438" y="286">75%</text>
    <text x="534" y="286">90%</text>
    <text x="628" y="286">100%</text>
  </g>
  <text x="340" y="306" text-anchor="middle" font-family="sans-serif" font-size="10" fill="#6B7280">Absolute overhead quadrat occupancy, pending validation</text>
</svg>
